<svg xmlns="http://www.w3.org/2000/svg" xmlns:xlink="http://www.w3.org/1999/xlink" viewBox="0 0 617.39 146.66"><defs><style>.cls-1{isolation:isolate;}.cls-2,.cls-5{fill:#fff;}.cls-3{fill:url(#linear-gradient);}.cls-4{mix-blend-mode:multiply;fill:url(#linear-gradient-2);}.cls-5{fill-rule:evenodd;}</style><linearGradient id="linear-gradient" x1="160.32" y1="-185.18" x2="212.49" y2="-116.88" gradientTransform="translate(318.86 -37.61) rotate(180)" gradientUnits="userSpaceOnUse"><stop offset="0"/><stop offset="1" stop-color="#fff"/></linearGradient><linearGradient id="linear-gradient-2" x1="199.57" y1="-147.97" x2="251.74" y2="-79.67" gradientTransform="translate(318.86 -37.61) rotate(180)" gradientUnits="userSpaceOnUse"><stop offset="0" stop-color="#fff" stop-opacity="0"/><stop offset="1"/></linearGradient></defs><g class="cls-1"><g id="Layer_2" data-name="Layer 2"><g id="Layer_1-2" data-name="Layer 1"><path class="cls-2" d="M226.74,45.27h2.85V68.2h30.73V45.27h2.85V94.91h-2.85V70.6H229.59V94.91h-2.85Z"/><path class="cls-2" d="M278.14,45.27H281V94.91h-2.85Z"/><path class="cls-2" d="M292.15,93.16V90.83h.44c1.75,1.09,5.92,2.26,11.32,2.26,8.68,0,13.5-4.82,13.5-10.73,0-7.52-5.62-9.71-11.9-12.12-6.64-2.56-12.63-5.33-12.63-14,0-7.08,5.92-11.6,14.68-11.6,6.06,0,10.07,1.31,11.82,2.41v2.33H319c-1.76-1.09-6.14-2.33-11.54-2.33-7,0-11.68,3.57-11.68,9,0,7.22,5.26,9.41,11.17,11.75,7.15,2.7,13.36,5.4,13.36,14.38,0,7.44-5.77,13.43-16.35,13.43C297.56,95.57,293.91,94.18,292.15,93.16Z"/><path class="cls-2" d="M340.56,47.61H324.13V45.27h35.7v2.34H343.4v47.3h-2.84Z"/><path class="cls-2" d="M368.23,45.27h12.41c10.87,0,15.69,4.75,15.69,12.93,0,7.73-4.89,12.48-13.07,13.35l16.43,23.36h-3.36l-16.06-23h-9.2v23h-2.84Zm11.82,24.31c8.62,0,13.29-4.16,13.29-11.31,0-6.94-3.94-10.66-13.29-10.66h-9v22Z"/><path class="cls-2" d="M409,45.27h2.84V94.91H409Z"/><path class="cls-2" d="M438.82,45.13h3.07L459.7,94.91h-3.07l-6.06-17.08H429.7l-6.06,17.08h-2.85ZM449.77,75.5,442.62,55l-2.34-6.79h-.15L437.8,55,430.5,75.5Z"/><path class="cls-2" d="M482.4,45.27h16.72c14.82,0,27.45,6.43,27.45,23.58,0,17.45-11.53,26.06-28.1,26.06H482.4Zm15.19,40.66c9.93,0,16.5-4,16.5-16.35,0-12.11-6.57-15.33-16.43-15.33h-3.43V85.93Z"/><path class="cls-2" d="M534.38,45.27H567V54.4h-20.8V65.13h17.67v9.13H546.21V85.79h21.61v9.12H534.38Z"/><path class="cls-2" d="M570.52,45.27h12.34L591.62,74c.73,2.56,2,6.72,2.41,8.76h.29c.36-2,1.68-6.35,2.33-8.61l8.76-28.84h12L601,94.91H586.87Z"/><path class="cls-2" d="M53.23,23.23,78.46,84.31l25.24,61.07,25.23-61.07,25.23-61.08C118.07,36.57,81.55,38.49,53.23,23.23Z"/><path class="cls-3" d="M53.23,23.23C69.77,50.87,107,70,141,55L103.7,145.38Z"/><path class="cls-4" d="M53.23,23.23c16.54,27.64,42.41,57.28,80.19,50.2L103.7,145.38Z"/><polygon class="cls-5" points="26.37 72.13 42.02 56.49 44.48 54.02 44.48 50.53 44.48 16.84 52.91 16.84 52.91 0 36.07 0 27.65 0 27.65 8.42 27.65 47.05 14.47 60.23 26.37 72.13"/><polygon class="cls-5" points="39.46 90.03 23.81 74.39 11.9 62.48 5.95 68.43 0 74.39 5.95 80.33 25.09 99.47 25.09 138.1 25.09 146.51 33.51 146.51 50.34 146.51 50.34 129.68 41.92 129.68 41.92 95.98 41.92 92.5 39.46 90.03"/><polygon class="cls-5" points="178.47 74.53 162.82 90.17 160.35 92.64 160.35 96.13 160.35 129.83 151.94 129.83 151.94 146.66 168.77 146.66 177.19 146.66 177.19 138.24 177.19 99.61 190.37 86.43 178.47 74.53"/><polygon class="cls-5" points="165.04 56.49 180.69 72.13 192.59 84.04 198.54 78.08 204.5 72.13 198.54 66.18 179.42 47.05 179.42 8.42 179.42 0 170.99 0 154.16 0 154.16 16.84 162.58 16.84 162.58 50.53 162.58 54.02 165.04 56.49"/></g></g></g></svg>