<?xml version="1.0" encoding="utf-8"?>
<!-- Generator: Adobe Illustrator 26.4.1, SVG Export Plug-In . SVG Version: 6.00 Build 0)  -->
<svg version="1.1" id="Layer_1" xmlns="http://www.w3.org/2000/svg" xmlns:xlink="http://www.w3.org/1999/xlink" x="0px" y="0px"
	 viewBox="0 0 358.81 282.08" style="enable-background:new 0 0 358.81 282.08;" xml:space="preserve">
<style type="text/css">
	.st0{fill:#606060;}
	.st1{fill:url(#SVGID_1_);}
	.st2{fill:url(#SVGID_00000138557590808261154310000010466902397467247249_);}
	.st3{fill-rule:evenodd;clip-rule:evenodd;}
	.st4{fill:url(#SVGID_00000087400425883234558180000016773641478934948004_);}
	.st5{fill:url(#SVGID_00000177458550988963237680000012142106551524258231_);}
	.st6{fill:url(#SVGID_00000177482946057285590880000015812789166246446993_);}
	.st7{fill:url(#SVGID_00000091009303750414772320000016330796809593136295_);}
	.st8{fill:url(#SVGID_00000181084016832242478060000004810228780480763833_);}
	.st9{fill:url(#SVGID_00000077325479175814200100000001602775926185908925_);}
</style>
<g>
	<path class="st0" d="M109.38,69.47l36.05,87.25l36.05,87.25l36.05-87.25l36.05-87.25C202.01,88.53,149.84,91.27,109.38,69.47z"/>
	
		<linearGradient id="SVGID_1_" gradientUnits="userSpaceOnUse" x1="-1469.9626" y1="-138.3207" x2="-1395.4398" y2="-40.7477" gradientTransform="matrix(-1 0 0 -1 -1210.144 108.7779)">
		<stop  offset="1.949380e-03" style="stop-color:#000000"/>
		<stop  offset="1" style="stop-color:#606060"/>
	</linearGradient>
	<path class="st1" d="M109.38,69.47c23.62,39.48,76.87,66.8,125.42,45.42l-53.33,129.08L109.38,69.47z"/>
	
		<linearGradient id="SVGID_00000010280188692167993580000015860278435935275701_" gradientUnits="userSpaceOnUse" x1="-1413.8923" y1="-85.1664" x2="-1339.3695" y2="12.4066" gradientTransform="matrix(-1 0 0 -1 -1210.144 108.7779)">
		<stop  offset="0" style="stop-color:#606060;stop-opacity:0"/>
		<stop  offset="0.9981" style="stop-color:#000000"/>
	</linearGradient>
	<path style="fill:url(#SVGID_00000010280188692167993580000015860278435935275701_);" d="M109.38,69.47
		c23.62,39.48,60.59,81.83,114.56,71.71l-42.46,102.79L109.38,69.47z"/>
	<g>
		<polygon class="st3" points="71.01,139.33 93.37,116.98 96.89,113.46 96.89,108.48 96.89,60.34 108.92,60.34 108.92,36.29 
			84.87,36.29 72.84,36.29 72.84,48.31 72.84,103.5 54.01,122.32 		"/>
		<polygon class="st3" points="89.7,164.9 67.35,142.55 50.34,125.54 41.84,134.05 33.34,142.55 41.84,151.05 69.18,178.38 
			69.18,233.57 69.18,245.59 81.2,245.59 105.26,245.59 105.26,221.54 93.22,221.54 93.22,173.4 93.22,168.42 		"/>
		<polygon class="st3" points="288.29,142.76 265.94,165.1 262.42,168.63 262.42,173.61 262.42,221.75 250.39,221.75 250.39,245.8 
			274.44,245.8 286.47,245.8 286.47,233.78 286.47,178.59 305.3,159.76 		"/>
		<polygon class="st3" points="269.11,116.98 291.47,139.33 308.47,156.34 316.97,147.83 325.48,139.33 316.97,130.83 289.65,103.5 
			289.65,48.31 289.65,36.29 277.61,36.29 253.57,36.29 253.57,60.34 265.59,60.34 265.59,108.48 265.59,113.46 		"/>
	</g>
</g>
</svg>
